<svg width="14.000000" height="13.000000" viewBox="0 0 14 13" fill="none" xmlns="http://www.w3.org/2000/svg" xmlns:xlink="http://www.w3.org/1999/xlink">
	<desc>
			Created with Pixso.
	</desc>
	<defs/>
	<g opacity="0.240000">
		<path id="Combined-Shape-path" d="M1.33301 12.998C0.596924 12.998 0 12.4323 0 11.7328L0 6.6532C0 5.95447 0.597412 5.388 1.33301 5.388L3.88257 5.388C4.25195 5.388 4.6687 5.11658 4.82788 4.81415C4.98706 4.51166 6.90137 0.55072 6.90137 0.55072C7.13599 0.0682983 7.74146 -0.141174 8.24683 0.101379C8.24683 0.101379 8.73242 0.320557 9.0498 0.555847C9.63916 0.992737 10.012 1.54645 9.99951 2.2066C10.0068 2.62439 9.92749 3.23993 9.78223 4.02283C9.74341 4.23206 9.5647 5.07611 9.5647 5.07611C9.52832 5.24847 9.64966 5.3877 9.83521 5.3877L12.2412 5.38782C13.4011 5.38782 14.1965 6.31708 13.9575 7.38098C13.9502 7.41687 13.1101 10.6258 12.9583 10.9982C12.3926 12.4547 11.0813 13.0193 9.00293 12.998C8.04907 13.0024 1.33301 12.998 1.33301 12.998Z" fill="#000000" fill-opacity="1.000000" fill-rule="nonzero"/>
	</g>
</svg>
